<svg xmlns="http://www.w3.org/2000/svg" width="1024" height="1024" viewBox="0 0 1024 1024">
  <defs>
    <style>
      .cls-1 {
        fill: #2476ff;
        fill-rule: evenodd;
      }
    </style>
  </defs>
  <g id="画板_2" data-name="画板 2">
    <path id="形状_4" data-name="形状 4" class="cls-1" d="M2566.09,645q-4.815-2.873-9.86-21.154t-4.83-58.912q0.24-40.647-9.86-107.481-6.27-39.435-12.52-62.28a217.629,217.629,0,0,0-18.05-44.97q-11.79-22.122-28.4-33.658t-28.88-13.469a268.687,268.687,0,0,0-29.59-2.648q-17.34-.735-20.46-4.806-3.15-4.078,8.9-25.241,24.06-40.407,34.43-52.912,10.32-12.476,30.55-22.117,20.19-9.627,40.44-8.175,19.725,1.923,37.06,14.419,17.325,12.521,31.52,37.025a243.632,243.632,0,0,1,21.67,47.848q7.455,23.336,12.27,63.491t8.19,81.273q3.375,41.123,1.44,71.174c-1.26,20.032-1.77,33.832-1.44,41.357,0.31,7.528,1.76,12.593,4.32,15.14s10.6-6.576,24.07-27.414l28.4-43.759q11.07-17.785,31.76-53.618t32.74-62.755q12.015-26.94,4.81-38.481-7.215-10.577-24.54-9.611l-26.96,1.928q-2.4-3.369,8.67-20.693a182.9,182.9,0,0,1,19.25-25.486,139.485,139.485,0,0,1,28.16-23.816q16.62-10.812,42.59-14.663,25.515-3.346,47.66,7.209,22.14,10.579,27.19,39.919a95.843,95.843,0,0,1-6.49,55.79q-8.7,18.756-36.83,52.654-28.185,33.912-69.08,78.859-31.635,34.958-64,69.245-23.73,24.944-47.85,49.486l0.66-.676q-24.06,24.52-40.92,38.724t-29.84,15.384c-8.67.79-14.13,0.086-16.36-2.174" transform="translate(-2248)"/>
    <path id="形状_4_拷贝" data-name="形状 4 拷贝" class="cls-1" d="M2952.91,379.024q4.815,2.873,9.86,21.154t4.83,58.912q-0.24,40.647,9.86,107.481,6.27,39.435,12.52,62.28a217.6,217.6,0,0,0,18.05,44.969q11.79,22.123,28.4,33.659t28.88,13.469a268.687,268.687,0,0,0,29.59,2.648q17.34,0.735,20.46,4.806,3.15,4.078-8.9,25.241-24.06,40.407-34.43,52.911-10.32,12.477-30.55,22.118-20.19,9.627-40.44,8.175-19.725-1.923-37.06-14.42-17.325-12.519-31.52-37.024a243.632,243.632,0,0,1-21.67-47.848q-7.455-23.335-12.27-63.491t-8.19-81.274q-3.375-41.121-1.44-71.173c1.26-20.032,1.77-33.833,1.44-41.358-0.31-7.527-1.76-12.592-4.32-15.139s-10.6,6.576-24.07,27.414l-28.4,43.759q-11.07,17.785-31.76,53.618t-32.74,62.755q-12.015,26.938-4.81,38.481,7.215,10.576,24.54,9.611l26.96-1.928q2.4,3.369-8.67,20.693a182.9,182.9,0,0,1-19.25,25.486,139.485,139.485,0,0,1-28.16,23.816q-16.62,10.812-42.59,14.663-25.515,3.346-47.66-7.209-22.14-10.58-27.19-39.919a95.843,95.843,0,0,1,6.49-55.79q8.7-18.756,36.83-52.654,28.185-33.912,69.08-78.859,31.635-34.959,64-69.246,23.73-24.942,47.85-49.485l-0.66.676q24.06-24.522,40.92-38.724t29.84-15.384c8.67-.791,14.13-0.086,16.36,2.174" transform="translate(-2248)"/>
  </g>
</svg>
